<svg id="layer_1" data-name="layer 1" xmlns="http://www.w3.org/2000/svg" viewBox="0 0 1611.82 429.82"><defs><style>.cls-1{fill:none;}</style></defs><path d="M420.54,514.16H386.77a6.6,6.6,0,0,0-6.56,7.51,54,54,0,0,0,41.84,45.05,6.55,6.55,0,0,1,5.12,6.41v41.24a6.6,6.6,0,0,1-7.43,6.54c-53.15-6.86-94.19-52-94.19-106.75V413.1a6.6,6.6,0,0,1,6.62-6.58h88.37a6.61,6.61,0,0,1,6.63,6.58v94.48A6.61,6.61,0,0,1,420.54,514.16ZM395.41,486a8.07,8.07,0,1,0-8.07,8A8,8,0,0,0,395.41,486Zm140.06-79.49a6.61,6.61,0,0,1,6.63,6.58V514.16c0,54.72-41.05,99.89-94.19,106.75a6.6,6.6,0,0,1-7.43-6.54V573.13a6.55,6.55,0,0,1,5.12-6.41,54,54,0,0,0,41.84-45.05,6.61,6.61,0,0,0-6.57-7.51H447.11a6.61,6.61,0,0,1-6.63-6.58V413.1a6.61,6.61,0,0,1,6.63-6.58ZM480.3,494a8,8,0,1,0-8.06-8A8,8,0,0,0,480.3,494ZM582.43,447.1a20.53,20.53,0,1,0-20.65-20.52A20.59,20.59,0,0,0,582.43,447.1Zm0,59.44A20.53,20.53,0,1,0,561.78,486,20.6,20.6,0,0,0,582.43,506.54Z" transform="translate(-218.09 -297.09)"/><path d="M701.3,537.42v17.66c5.79,2.15,13.91,5,36.52,5,14.5,0,30.3-1.14,43.63-2H782a6.21,6.21,0,0,1,6.23,6.46c0,3.31-2.32,6.75-7.1,7.18-10.29,1-21.6,1.58-32.47,1.58-30.87,0-56.53-2.58-70.87-21.82C672.89,570,668.39,574,663.61,574c-3.48,0-6.81-2.15-6.81-5.31a5.45,5.45,0,0,1,1.3-3.45c7.25-9.47,11-24,11-37.33v-2.3c0-3.44,2.9-5.17,5.94-5.17,3.19,0,6.52,1.87,6.52,5.6,0,2.73-.72,9.34-.87,10.34a29.75,29.75,0,0,0,8.12,11.35v-31.6H667.67a5.46,5.46,0,1,1,0-10.91h52a5.46,5.46,0,1,1,0,10.91H701.3V526.5h14.2a5.46,5.46,0,1,1,0,10.92Zm5.94-38.63c-4.35.29-9,.43-13.63.43-21.45,0-26.52-.72-26.52-18.24,0-5,.29-10.33.43-15.07.29-6.32,4.79-12.35,13.19-12.64,4.5-.14,8.85-.29,13.19-.29s8.7.15,13.05.29c6.67.29,12.46,5.74,12.9,11.63.43,4.6.58,9.62.58,14.5,0,2.45,0,4.89-.15,7.18C720,494.05,714.92,498.36,707.24,498.79Zm1-18H678.69v3.45c.14,3.87,2,4.88,14.49,4.88,13.19,0,14.93-.29,15.07-5ZM708,469.07c-.29-5.75-1.59-5.75-14.2-5.75-13.48,0-14.64.29-14.93,5.75v1.86h29.28Zm51.89-2.73c-.72,2.58-1.44,5-2.17,7.18,12.76,0,20.73,1.15,21.31,10.77.29,5.74.43,12.2.43,18.52s-.14,12.78-.43,18.24c-.29,5.74-5.51,10.77-13.48,11.34,5.36,3.45,11.59,7,17.68,8.76a6.14,6.14,0,0,1,4.78,6,6.6,6.6,0,0,1-6.52,6.75c-6.09,0-18.41-8.62-23.62-12.35a4.64,4.64,0,0,1-2-4,6.44,6.44,0,0,1,2.61-5H746.66A5.71,5.71,0,0,1,749,537c0,6.74-23.77,18.52-29.57,18.52a6.16,6.16,0,0,1-6.37-6c0-2.59,1.59-5.17,5.36-6.18,1.88-.43,12.76-3.3,20.87-11.34-6.52-1.29-9.85-5.46-10-10.77-.14-5.46-.29-11.63-.29-18s.15-12.78.29-18.81c.15-5.17,3.91-10.19,13.92-10.63l1.45-.14c.57-2.44,1.16-4.45,1.59-7.32h-17c-4.2,0-6.23-2.87-6.23-5.6s2-5.6,6.23-5.6h50.88c4.35,0,6.37,2.73,6.37,5.6s-2,5.6-6.37,5.6Zm7,32.31H741.16v7.89h25.65Zm-.29-11.92c-.14-4.17-2-4.6-12.17-4.6s-12.61.58-12.9,4.74c0,1-.15,2.16-.15,3.16h25.37ZM741.3,515.3l.15,4c.14,2.88.29,4.6,12.61,4.6,9,0,12.17,0,12.46-4.74,0-1.29.15-2.58.15-3.88Zm68.93,31.52a7.22,7.22,0,0,1-7.1-7.32c0-2.87,1.74-5.6,5.65-6.46,17.1-3.88,33.05-12.35,46.82-22.83a60.65,60.65,0,0,0-12-6.75c-2.76-1.15-3.92-3-3.92-4.74,0-3.16,3.48-6.46,7.83-6.46,4.06,0,14.2,5,18.84,9C878.64,490,887.48,478,887.48,476.17c0-1.43,0-1.86-9.85-1.86-6.52,0-14.5.29-21,.43C847,484.93,820.81,509.2,812,509.2a7.26,7.26,0,0,1-7.54-6.89c0-2.16,1.16-4.31,4.06-5.75,15.36-7.75,36-25.7,46.82-42.21a6.88,6.88,0,0,1,5.79-3.3c3.92,0,8,3.3,8,7,0,1.15-.44,2.3-2.76,5.32,8.55-.15,17.83-.44,23.92-.44,8,0,13.48,4.46,13.48,10.49a15.61,15.61,0,0,1-3,8.47c-8.7,12.49-21.46,25.84-36.39,37.19,4.64-.15,9.71-.15,14.79-.15,8.26,0,16.67.15,24.2.29,8.7.29,14.64,6.46,15.08,12.78.29,4.17.29,8.62.29,13.07s0,8.9-.29,13.35c-.44,7.61-6.38,13.93-15.8,14.36-7,.29-14.35.43-21.45.43-8.12,0-16.09-.14-22.9-.43-10.3-.43-15.66-6.17-16.09-14.21-.15-3.45-.29-7.33-.29-11.35,0-4.74.14-9.62.29-13.49C831.39,539.79,815,546.82,810.23,546.82Zm94.5-.86c0-3.3,0-6.6-.14-9.48-.15-3.44-2-5.45-6.67-5.6-5.65-.14-12-.28-18.26-.28s-12.32.14-17.54.28c-4.35.15-6.52,3-6.67,5.75-.14,2.29-.14,4.88-.14,7.61,0,3.59,0,7.46.14,10.77.15,6,2.47,6,24.35,6,6.24,0,12.61-.15,18.41-.29,3.62-.14,6.23-1.72,6.38-5.74C904.73,552.28,904.73,549.12,904.73,546Zm99.55-53.71c-2.39,18.78-15.82,46.74-30.15,59.9-11.5,10.5-24,4.73-30.61-8-9.4-18.34.6-45.85,20.6-59.6,18.37-12.57,45.68-14.64,64.49-3.4,23.14,13.75,26.87,41,13.89,62.12-7,11.38-21.65,20.55-36.43,24.4-13.14,3.4-17.76-11.54-4.92-14.5,11.34-2.51,22.84-8.87,27.76-16.56,10.6-16.57,6.57-35.94-8.21-45.26a38.88,38.88,0,0,0-18.51-5.91A7.34,7.34,0,0,1,1004.28,492.25Zm-33.14,2.81c-13.88,10.65-21.35,30.32-15.08,41.71,2.24,4.29,6.12,6.51,9.85,3.25,11.2-9.76,21.65-33.28,23.14-49.25a10.42,10.42,0,0,1,1.35-4.59A49.66,49.66,0,0,0,971.14,495.06Zm104.65-7.4c-9.1-2.51-6.27-16.12,4.33-12.72,4.93,1.63,12.69,1.48,20.45-.44a94.08,94.08,0,0,0,3-14.94c1.34-8.72,14.48-7.1,14.18,1.33a49,49,0,0,1-2.09,9,47.33,47.33,0,0,0,4.78-2.52c6.72-4.73,16.12,4.44,6.57,11.24-3.74,2.66-9.86,5-16,6.81-7,16.71-17.16,34.46-26.72,49.84-5.52,8.87-19.85,3.1-13.28-6.51,8.36-12.28,17.16-24.85,24.48-40.38A41.18,41.18,0,0,1,1075.79,487.66Zm25.68,83.27c-13.88-6.95-15.53-22.92-.15-29.73,9.26-4.14,19.41-4.43,28.66-2.81v-5.17c0-3.7-.3-7.4-.44-11.1a43.46,43.46,0,0,1,.74-9.9c1.79-8.14,14.93-6.22,13.44,2.66a29.08,29.08,0,0,0-.9,7c0,3.4,0,7.1.15,11.39.15,2.81.45,5.91.6,9.17,7.91,3.25,14.48,7.84,18.21,11.83,8.51,9.32-3.58,19.82-10.75,11.24a43.11,43.11,0,0,0-8.51-7.69C1138.19,569.6,1119.53,580,1101.47,570.93Zm4.78-19.37c-4,2.07-4.33,6.36.15,8.58,8.95,4.43,21,.14,22.69-7.84.15-.45,0-1,.15-1.48C1121.62,548.3,1113.56,548,1106.25,551.56ZM1139.54,497c-8.21.45-8.81-11.83.74-12.72,9.86-.88,20.31.89,27.47,5.18,10.15,6.06,2.39,18.34-4.93,13.75A38.67,38.67,0,0,0,1139.54,497Zm73,55.61c-10.75-11.53-15.67-28.69-16.87-47.33-.59-8.43-.89-11.09-.74-16.41.3-9.32,14.78-11.24,15.22-.15.3,5.77-.29,6.06,0,12.87.6,15.53,3.44,30.17,11.8,38.15,3.88,3.7,5.82,4.15,9.1-.29a56.54,56.54,0,0,0,4.93-8.73c4-8.58,16.42-2.36,13.58,5.33a67.75,67.75,0,0,1-5.82,11.39C1234.19,562.8,1220.9,561.47,1212.54,552.59Zm80.77-26c-2.39-11.83-8.51-23.22-16.58-28.69-7.16-4.88.9-15.83,9.86-9.17,10.6,7.84,20.9,21.74,22.39,34.31C1310.17,533.81,1295.4,536.77,1293.31,526.56Zm71.06,24.85c1.19,21.15-17.91,20.85-30.16,14.94-17.76-8.58-12.83-19.08-4.92-27.66,4.63-4.88,12.24-10.65,21-15.68-.15-6.21-.3-12.57-.3-18.49a56.32,56.32,0,0,1-17.92.6c-11-1.33-9.25-16.12,3.14-13.61,3.73.74,9.25.15,15.08-1.33,0-6.95-.3-11.69-.6-17.31-.6-10.94,15.82-10.64,15.08-.14-.3,3.25-.45,8-.75,12.42a44.58,44.58,0,0,0,6-3.4c8.06-5.33,17.17,6.36,6.72,12.57a87.62,87.62,0,0,1-14,6.66c-.15,4.58-.15,10,0,15.67a92.38,92.38,0,0,1,12.54-4.58c12.84-3.7,25.52-2.52,33.14.15,24.63,8.43,20.6,28.39,13,39.34-9.71,13.9-30.61,18.63-47.92,8.87-8.51-4.88-2.69-17,6.41-12.57,11.65,5.62,21.2,5.77,28.37-3.7,3.58-4.73,7.76-15.23-5.23-20-5.82-2.22-13.73-2.67-24.18-.3a75.86,75.86,0,0,0-15.67,5.62C1363.47,537.36,1364.07,545.05,1364.37,551.41Zm-25.08-4.73c-3.14,3.4-3.14,7.24.3,8.87,6.42,3.11,10.75,2.66,10.9-3.11.15-4,.15-9.46,0-15.52A72.61,72.61,0,0,0,1339.29,546.68Zm84.64-46.74c-3.88-3.4-12.09-6.95-19.7-6.06-9.11,1-11.5-12.13-.75-13s25.68,2.81,31,8.43c3.59,3.7,2.69,7.84.15,10.5S1427.67,503.19,1423.93,499.94Zm94.15-6.82c-1.74-1.58-2.9-2.3-4.2-2.3s-2.32.72-3.77,2.3c-18.26,18.81-45.37,37.76-52.47,37.76a6.85,6.85,0,0,1-7-7,7.19,7.19,0,0,1,4.79-6.75c16.38-6.89,34.2-20.68,44.93-32,3.77-4,8.12-6.18,12.75-6.18s9.14,2,14.06,6.18a166,166,0,0,0,45.52,28.86c3.33,1.44,4.78,4,4.78,6.6a7.17,7.17,0,0,1-7.25,7.33C1561.86,527.87,1535.33,508.91,1518.08,493.12Zm22.18-20.1v5.31c0,3.88-3.48,5.89-6.81,5.89s-6.67-1.87-6.67-5.46V473H1500v5.31c0,3.88-3.47,5.89-6.81,5.89s-6.52-1.87-6.52-5.46V473l-28,.14a6.25,6.25,0,1,1,0-12.49l28,.14V453.2c0-3.73,3.33-5.6,6.81-5.6,3.19,0,6.52,1.87,6.52,5.6v7.61h26.82V453.2c0-3.73,3.48-5.6,6.81-5.6s6.67,1.87,6.67,5.6v7.61l29-.14a6.25,6.25,0,1,1,0,12.49Zm-72,98.21a7.45,7.45,0,0,1-7.25-7.32c0-2.44,1.45-4.88,4.64-6.18a45.56,45.56,0,0,0,20.73-15.79,5.57,5.57,0,0,1,4.64-2.58,7.38,7.38,0,0,1,7,7.17C1497.94,554.15,1473.87,571.23,1468.22,571.23Zm52.62-39.05.14,37.62a6.34,6.34,0,0,1-6.67,6.6c-3.47,0-6.81-2.15-6.81-6.6l.15-37.62-24.35.14h-.15a5.71,5.71,0,0,1-6.09-5.89,6,6,0,0,1,6.24-6l24.35.14V509.78a6.6,6.6,0,1,1,13.19,0v10.76l24.93-.14a6,6,0,0,1,0,11.92Zm32,34.89c-4.78-6.18-12.47-11.49-20.15-15.08-2.61-1.29-3.77-3.3-3.77-5.46,0-3.44,2.76-6.89,6.53-6.89,3.62,0,19.27,8,27.54,16.66a8.39,8.39,0,0,1,2.46,5.74c0,4.17-3.62,7.9-7.39,7.9A6.73,6.73,0,0,1,1552.87,567.07ZM1662.73,468c-1.59-1.72-2.75-2.58-3.76-2.58s-2,.86-3.48,2.58c-11.89,14.93-31,33-46.53,43.08a11,11,0,0,1-6.09,2,7.86,7.86,0,0,1-8-7.61c0-2.44,1.45-5,4.64-6.75,16.81-8.62,34.79-26.13,45.8-40.35,3.48-4.45,8-6.89,12.61-6.89,4.49,0,9.28,2.15,13.63,6.89,14.2,15.08,29.71,27.14,47,35.9a6.73,6.73,0,0,1,3.91,6.17,8.71,8.71,0,0,1-8.55,8.47C1706.07,508.91,1678.82,485.8,1662.73,468Zm-7.39,61.89a234.91,234.91,0,0,1-10.58,28c13.34-1,26.53-2.59,39.14-4.45a96.22,96.22,0,0,0-10.58-8.33c-2.18-1.44-3-3.16-3-4.88,0-3,3-5.89,6.81-5.89,8.56,0,34.65,24,34.65,32.45,0,4.31-4.06,7.76-8.12,7.76a6.56,6.56,0,0,1-5.94-3.88,62.76,62.76,0,0,0-4.79-7.32c-33.91,7-75.08,9.76-78,9.76-4.35,0-6.66-3.73-6.66-7.18,0-3.16,1.88-6.32,5.94-6.46,5.07-.15,10.29-.29,15.51-.58A166.14,166.14,0,0,0,1640,530l-27.4.15c-4.64,0-6.81-3-6.81-6.18a6.58,6.58,0,0,1,6.81-6.75h92c4.64,0,7,3.3,7,6.61,0,3.16-2.32,6.32-7,6.32Zm-16.52-26.42c-4.49,0-6.81-3.16-6.81-6.46a6.44,6.44,0,0,1,6.81-6.47h41.6a6.44,6.44,0,0,1,6.81,6.47c0,3.3-2.32,6.46-6.81,6.46Z" transform="translate(-218.09 -297.09)"/><rect class="cls-1" width="1611.82" height="429.82"/></svg>
