<svg id="レイヤー_1" data-name="レイヤー 1" xmlns="http://www.w3.org/2000/svg" viewBox="0 0 779.57 682.67"><defs><style>.cls-1{fill:none;}</style></defs><path d="M954.88,513H901.56A10.48,10.48,0,0,0,891.19,525a85.61,85.61,0,0,0,66.08,71.54,10.4,10.4,0,0,1,8.08,10.18v65.5a10.45,10.45,0,0,1-11.73,10.39A171,171,0,0,1,804.88,513V352.53a10.47,10.47,0,0,1,10.46-10.46H954.88a10.47,10.47,0,0,1,10.47,10.46V502.58A10.46,10.46,0,0,1,954.88,513ZM915.2,468.33a12.74,12.74,0,1,0-12.74,12.73A12.74,12.74,0,0,0,915.2,468.33Zm221.18-126.26a10.47,10.47,0,0,1,10.46,10.46V513A171,171,0,0,1,998.1,682.58a10.45,10.45,0,0,1-11.73-10.39v-65.5a10.4,10.4,0,0,1,8.08-10.18A85.56,85.56,0,0,0,1060.53,525,10.48,10.48,0,0,0,1050.16,513H996.84a10.46,10.46,0,0,1-10.47-10.46v-150a10.47,10.47,0,0,1,10.47-10.46Zm-87.12,139a12.73,12.73,0,1,0-12.73-12.73A12.73,12.73,0,0,0,1049.26,481.06Zm161.26-74.53a32.6,32.6,0,1,0-32.6-32.6A32.62,32.62,0,0,0,1210.52,406.53Zm0,94.4a32.6,32.6,0,1,0-32.6-32.6A32.61,32.61,0,0,0,1210.52,500.93Z" transform="translate(-634.22 -170.67)"/><rect class="cls-1" width="779.57" height="682.67"/></svg>